<svg aria-hidden="true" style="position: absolute; width: 0; height: 0; overflow: hidden;" version="1.1" xmlns="http://www.w3.org/2000/svg" xmlns:xlink="http://www.w3.org/1999/xlink">
<defs>
<symbol id="icon-chocolate" viewBox="0 0 32 32">
<path d="M4.314 20.464l11.333-18.667 9.333 5.333-0.667 4.667 2 2-8.667 15.333-13.333-8.667z"></path>
<path stroke-linejoin="round" stroke-linecap="round" stroke-miterlimit="4" stroke-width="2.6667" d="M20.37 22.715l-13.569-8.479M10.734 7.785l13.569 8.479M9.652 24.927l11.799-19.354M25.941 13.575c-2.908-1.817-4.034-3.263-2.067-6.489l-9.207-5.753-11.799 19.354 13.569 8.479 9.504-15.591z"></path>
</symbol>
<symbol id="icon-coin" viewBox="0 0 32 32">
<path d="M16 2.667c-7.333 0-13.333 6-13.333 13.333s6 13.333 13.333 13.333 13.333-6 13.333-13.333c0-7.333-6-13.333-13.333-13.333zM16 26.667c-5.867 0-10.667-4.8-10.667-10.667s4.8-10.667 10.667-10.667 10.667 4.8 10.667 10.667c0 5.867-4.8 10.667-10.667 10.667z"></path>
<path d="M17.733 14.667h-3.467c-0.667 0-1.2-0.533-1.2-1.2s0.533-1.2 1.2-1.2h4.933c0.8 0 1.333-0.533 1.333-1.333s-0.533-1.333-1.333-1.333h-1.867v-1.2c0-0.8-0.533-1.333-1.333-1.333s-1.333 0.533-1.333 1.333v1.2h-0.4c-2.133 0-3.867 1.733-3.867 3.867s1.733 3.867 3.867 3.867h3.333c0.667 0 1.2 0.533 1.2 1.2s-0.533 1.2-1.2 1.2h-4.933c-0.8 0-1.333 0.533-1.333 1.333s0.533 1.333 1.333 1.333h2v1.2c0 0.8 0.533 1.333 1.333 1.333s1.333-0.533 1.333-1.333v-1.2h0.4c2.133 0 3.867-1.733 3.867-3.867s-1.733-3.867-3.867-3.867z"></path>
</symbol>
<symbol id="icon-facebook" viewBox="0 0 32 32">
<path d="M19.52 4.64c0.24 0 0.48 0 0.96 0v3.6c-0.24 0-0.72 0-1.2 0s-0.96 0-1.2 0.24c-0.24 0.24-0.24 0.48-0.24 1.040 0 0.48 0 0.8 0 1.28h2.64v3.040h-2.64v13.2h-4.080v-13.28h-2.16v-3.040h2.16v-1.040c0-1.76 0.24-3.040 0.72-3.6 0.72-1.040 2.16-1.52 4.32-1.52 0.24 0.080 0.48 0.080 0.72 0.080z"></path>
</symbol>
<symbol id="icon-instagram" viewBox="0 0 32 32">
<path d="M28.718 10.756c-0.016-1.074-0.215-2.14-0.596-3.145-0.667-1.716-2.024-3.073-3.743-3.737-0.994-0.373-2.044-0.573-3.108-0.596-1.367-0.061-1.801-0.078-5.273-0.078s-3.916 0-5.274 0.078c-1.062 0.023-2.112 0.223-3.106 0.596-1.719 0.664-3.078 2.021-3.743 3.737-0.374 0.992-0.576 2.041-0.596 3.101-0.061 1.367-0.080 1.8-0.080 5.265s0 3.909 0.080 5.265c0.021 1.062 0.222 2.109 0.596 3.104 0.667 1.714 2.024 3.071 3.744 3.735 0.989 0.386 2.040 0.605 3.106 0.639 1.369 0.061 1.803 0.079 5.274 0.079s3.917 0 5.274-0.079c1.062-0.021 2.112-0.221 3.108-0.595 1.719-0.666 3.076-2.022 3.743-3.737 0.374-0.993 0.574-2.041 0.596-3.104 0.061-1.365 0.080-1.798 0.080-5.265-0.003-3.466-0.003-3.906-0.082-5.264zM15.99 22.531c-3.631 0-6.572-2.936-6.572-6.561s2.941-6.561 6.572-6.561c3.628 0 6.572 2.936 6.572 6.561s-2.944 6.561-6.572 6.561zM22.824 10.696c-0.849 0-1.532-0.684-1.532-1.53s0.684-1.53 1.532-1.53c0.846 0 1.531 0.684 1.531 1.53s-0.685 1.53-1.531 1.53z"></path>
<path d="M15.992 19.976c2.211 0 4.004-1.793 4.004-4.004s-1.793-4.004-4.004-4.004c-2.211 0-4.004 1.793-4.004 4.004s1.793 4.004 4.004 4.004z"></path>
</symbol>
<symbol id="icon-twitter" viewBox="0 0 32 32">
<path d="M29.333 7.898c-0.992 0.435-2.048 0.723-3.15 0.863 1.133-0.677 1.998-1.74 2.405-3.022-1.057 0.63-2.223 1.075-3.467 1.323-1.003-1.068-2.433-1.73-3.993-1.73-3.027 0-5.463 2.457-5.463 5.468 0 0.433 0.037 0.85 0.127 1.247-4.545-0.222-8.567-2.4-11.268-5.718-0.472 0.818-0.748 1.755-0.748 2.763 0 1.893 0.975 3.572 2.428 4.543-0.878-0.017-1.74-0.272-2.47-0.673 0 0.017 0 0.038 0 0.060 0 2.657 1.895 4.863 4.38 5.372-0.445 0.122-0.93 0.18-1.433 0.18-0.35 0-0.703-0.020-1.035-0.093 0.708 2.165 2.718 3.757 5.108 3.808-1.86 1.455-4.222 2.332-6.778 2.332-0.448 0-0.878-0.020-1.308-0.075 2.422 1.562 5.292 2.453 8.387 2.453 10.060 0 15.56-8.333 15.56-15.557 0-0.242-0.008-0.475-0.020-0.707 1.085-0.77 1.997-1.732 2.74-2.838z"></path>
</symbol>
<symbol id="icon-spoon" viewBox="0 0 32 32">
<path d="M15.451 14.106c-0.783-0.95-1.177-2.116-1.177-3.282 0-4.324 5.181-8.642 10.362-8.642 2.86 0 5.181 2.321 5.181 5.182 0 5.182-4.318 10.364-8.646 10.364-1.166 0-2.331-0.394-3.281-1.177l-12.758 12.761c-0.675 0.675-1.77 0.675-2.445 0s-0.675-1.771 0-2.445l12.764-12.761z"></path>
</symbol>
<symbol id="icon-Vector" viewBox="0 0 32 32">
<path stroke-linejoin="round" stroke-linecap="round" stroke-miterlimit="4" stroke-width="2.6667" d="M2.286 16h27.429M29.714 16l-6.857-6.857M29.714 16l-6.857 6.857"></path>
</symbol>
<symbol id="icon-Play" viewBox="0 0 32 32">
<path d="M0.762 32v-32l30.476 16-30.476 16z"></path>
</symbol>
<symbol id="icon-Scrolldown" viewBox="0 0 32 32">
<path d="M17.488 18.934c-0.195 0.196-0.427 0.352-0.682 0.459s-0.529 0.161-0.806 0.161c-0.277 0-0.55-0.055-0.806-0.161s-0.487-0.262-0.682-0.459l-9.596-9.617c-0.195-0.196-0.426-0.352-0.682-0.459s-0.529-0.161-0.806-0.161c-0.277 0-0.55 0.055-0.806 0.161s-0.487 0.262-0.682 0.459c-0.39 0.393-0.609 0.924-0.609 1.477s0.219 1.085 0.609 1.477l9.617 9.617c1.179 1.177 2.776 1.838 4.442 1.838s3.263-0.661 4.442-1.838l9.617-9.617c0.387-0.39 0.605-0.917 0.608-1.467 0.002-0.276-0.051-0.549-0.156-0.804s-0.258-0.487-0.452-0.683c-0.195-0.196-0.427-0.352-0.682-0.459s-0.529-0.161-0.806-0.161-0.55 0.055-0.806 0.161c-0.255 0.106-0.487 0.262-0.682 0.459l-9.596 9.617z"></path>
</symbol>
<symbol id="icon-Choco" viewBox="0 0 32 32">
<path d="M13.511 0.473l8.602 8.613 0.091-0.091c0.18-0.176 0.422-0.276 0.674-0.279s0.496 0.092 0.68 0.264l0.998 0.998c0.349 0.349 0.36 0.88 0.095 1.25l-0.005 0.008-0.163 0.219 7.040 7.040c0.629 0.629 0.629 1.634 0 2.263l-10.777 10.777c-0.629 0.629-1.634 0.629-2.263 0l-5.082-5.082c-0.084 0.106-0.19 0.194-0.311 0.256s-0.253 0.099-0.389 0.106c-0.136 0.008-0.271-0.014-0.398-0.062s-0.242-0.123-0.338-0.22l-2.971-2.971c-0.176-0.18-0.276-0.421-0.279-0.674s0.092-0.496 0.264-0.68l0.007-0.008 0.088-0.087-8.602-8.602c-0.629-0.629-0.629-1.634 0-2.263l10.777-10.777c0.629-0.629 1.634-0.629 2.263 0v0.001zM21.034 10.164l-2.007-2.006c-0.063-0.065-0.139-0.117-0.222-0.152s-0.173-0.053-0.264-0.053-0.18 0.018-0.264 0.053c-0.084 0.035-0.159 0.087-0.222 0.152l-4.091 4.091c-0.065 0.064-0.116 0.141-0.151 0.225s-0.053 0.175-0.053 0.266 0.018 0.182 0.053 0.266c0.035 0.084 0.087 0.161 0.151 0.225l1.999 1.999 0.697-0.697-1.789-1.789 3.669-3.68 1.793 1.799 0.701-0.701zM15.233 15.961l-2.005-2.005c-0.063-0.065-0.139-0.117-0.222-0.152s-0.173-0.053-0.264-0.053-0.18 0.018-0.264 0.053c-0.083 0.035-0.159 0.087-0.222 0.152l-4.103 4.103c-0.274 0.263-0.274 0.697 0 0.971l2.002 2.002 0.704-0.704-1.794-1.787 3.68-3.669 1.787 1.786 0.699-0.698zM7.797 7.078l4.091 4.091c0.274 0.274 0.709 0.274 0.971-0.011l4.091-4.091c0.065-0.062 0.117-0.136 0.152-0.219s0.054-0.171 0.054-0.261h0.011c0-0.171-0.069-0.354-0.206-0.491l-4.091-4.091c-0.064-0.065-0.141-0.117-0.225-0.152s-0.175-0.053-0.266-0.053c-0.091 0-0.182 0.018-0.266 0.053s-0.161 0.087-0.225 0.152l-4.091 4.103c-0.274 0.263-0.274 0.697 0 0.971zM2.003 12.873l4.091 4.091c0.274 0.274 0.709 0.274 0.971 0l4.091-4.091c0.066-0.063 0.119-0.14 0.154-0.224s0.053-0.176 0.051-0.267h0.011c0-0.183-0.069-0.354-0.206-0.491l-4.091-4.091c-0.063-0.065-0.139-0.117-0.222-0.152s-0.173-0.054-0.264-0.054c-0.091 0-0.18 0.018-0.264 0.054s-0.159 0.087-0.222 0.152l-4.103 4.103c-0.274 0.263-0.274 0.697 0 0.971zM9.926 22.877l2.699 2.701 11.013-14.903-0.749-0.749-12.963 12.951z"></path>
<path d="M13.511 0.473l8.602 8.613 0.091-0.091c0.18-0.176 0.422-0.276 0.674-0.279s0.496 0.092 0.68 0.264l0.998 0.998c0.349 0.349 0.36 0.88 0.095 1.25l-0.005 0.008-0.163 0.219 7.040 7.040c0.629 0.629 0.629 1.634 0 2.263l-10.777 10.777c-0.629 0.629-1.634 0.629-2.263 0l-5.082-5.082c-0.084 0.106-0.19 0.194-0.311 0.256s-0.253 0.099-0.389 0.106c-0.136 0.008-0.271-0.014-0.398-0.062s-0.242-0.123-0.338-0.22l-2.971-2.971c-0.176-0.18-0.276-0.421-0.279-0.674s0.092-0.496 0.264-0.68l0.007-0.008 0.088-0.087-8.602-8.602c-0.629-0.629-0.629-1.634 0-2.263l10.777-10.777c0.629-0.629 1.634-0.629 2.263 0v0.001zM21.034 10.164l-2.007-2.006c-0.063-0.065-0.139-0.117-0.222-0.152s-0.173-0.053-0.264-0.053-0.18 0.018-0.264 0.053c-0.084 0.035-0.159 0.087-0.222 0.152l-4.091 4.091c-0.065 0.064-0.116 0.141-0.151 0.225s-0.053 0.175-0.053 0.266 0.018 0.182 0.053 0.266c0.035 0.084 0.087 0.161 0.151 0.225l1.999 1.999 0.697-0.697-1.789-1.789 3.669-3.68 1.793 1.799 0.701-0.701zM15.233 15.961l-2.005-2.005c-0.063-0.065-0.139-0.117-0.222-0.152s-0.173-0.053-0.264-0.053-0.18 0.018-0.264 0.053c-0.083 0.035-0.159 0.087-0.222 0.152l-4.103 4.103c-0.274 0.263-0.274 0.697 0 0.971l2.002 2.002 0.704-0.704-1.794-1.787 3.68-3.669 1.787 1.786 0.699-0.698zM7.797 7.078l4.091 4.091c0.274 0.274 0.709 0.274 0.971-0.011l4.091-4.091c0.065-0.062 0.117-0.136 0.152-0.219s0.054-0.171 0.054-0.261h0.011c0-0.171-0.069-0.354-0.206-0.491l-4.091-4.091c-0.064-0.065-0.141-0.117-0.225-0.152s-0.175-0.053-0.266-0.053c-0.091 0-0.182 0.018-0.266 0.053s-0.161 0.087-0.225 0.152l-4.091 4.103c-0.274 0.263-0.274 0.697 0 0.971zM2.003 12.873l4.091 4.091c0.274 0.274 0.709 0.274 0.971 0l4.091-4.091c0.066-0.063 0.119-0.14 0.154-0.224s0.053-0.176 0.051-0.267h0.011c0-0.183-0.069-0.354-0.206-0.491l-4.091-4.091c-0.063-0.065-0.139-0.117-0.222-0.152s-0.173-0.054-0.264-0.054c-0.091 0-0.18 0.018-0.264 0.054s-0.159 0.087-0.222 0.152l-4.103 4.103c-0.274 0.263-0.274 0.697 0 0.971zM9.926 22.877l2.699 2.701 11.013-14.903-0.749-0.749-12.963 12.951z"></path>
</symbol>
</defs>
</svg>
